<?xml version="1.0" encoding="UTF-8" standalone="no"?>
<!DOCTYPE svg PUBLIC "-//W3C//DTD SVG 1.1//EN" "http://www.w3.org/Graphics/SVG/1.1/DTD/svg11.dtd">
<svg width="100%" height="100%" viewBox="0 0 110 39" version="1.1" xmlns="http://www.w3.org/2000/svg" xmlns:xlink="http://www.w3.org/1999/xlink" xml:space="preserve" xmlns:serif="http://www.serif.com/" style="fill-rule:evenodd;clip-rule:evenodd;stroke-linejoin:round;stroke-miterlimit:2;">
    <g transform="matrix(1,0,0,1,-15.37,-10.4801)">
        <path d="M23.485,19.549C23.313,19.277 23.203,18.969 23.165,18.649C23.074,18.259 23.023,17.86 23.015,17.459C23.6,17.556 29.194,17.513 29.787,17.516L31.347,17.516C32.766,17.497 32.51,17.557 33.136,17.557C33.439,17.565 34.812,17.779 35.177,17.83C35.733,17.907 35.641,17.849 36.796,18.087L43.289,18.6C43.781,18.601 44.272,18.567 44.759,18.5C44.882,18.626 44.977,18.776 45.039,18.94C45.11,19.115 45.147,19.301 45.149,19.49C43.795,19.97 37.312,19.684 35.876,19.647C35.286,20.787 31.18,27.53 30.72,28.65C30.26,29.77 29.87,30.86 29.55,31.9C29.247,32.865 29,33.847 28.81,34.84C28.641,35.66 28.551,36.493 28.54,37.33C28.54,38.37 28.93,38.95 29.71,39.07C30.396,38.976 31.068,38.798 31.71,38.54C32.323,38.293 32.896,37.956 33.41,37.54C33.527,37.701 33.609,37.885 33.65,38.08C33.445,38.356 33.203,38.601 32.93,38.81C32.572,39.107 32.198,39.384 31.81,39.64C31.435,39.895 31.045,40.126 30.64,40.33C30.374,40.476 30.087,40.58 29.79,40.64C29.183,40.635 28.583,40.516 28.02,40.29C27.448,40.062 26.907,39.763 26.41,39.4C25.952,39.074 25.553,38.671 25.23,38.21C24.943,37.84 24.781,37.388 24.77,36.92C24.782,36.201 24.859,35.485 25,34.78C25.15,33.91 25.37,32.98 25.65,31.96C25.93,30.94 26.27,29.88 26.65,28.77C27.03,27.66 30.007,20.546 30.457,19.456L23.485,19.549Z" style="fill:rgb(97,143,178);fill-rule:nonzero;"/>
    </g>
    <g transform="matrix(1,0,0,1,-14.4765,-9.67012)">
        <path d="M48.5,24.73C48.781,24.736 49.059,24.776 49.33,24.85C49.629,24.929 49.921,25.036 50.2,25.17C50.431,25.282 50.649,25.42 50.85,25.58C51.03,25.72 51.12,25.85 51.12,25.97C50.65,26.97 50.21,27.97 49.81,28.97C49.41,29.97 49.07,30.97 48.81,31.86C48.547,32.708 48.33,33.569 48.16,34.44C48.02,35.128 47.943,35.828 47.93,36.53C47.915,37.084 47.986,37.637 48.14,38.17C48.247,38.563 48.501,38.9 48.85,39.11C48.511,39.323 48.139,39.478 47.75,39.57C47.359,39.681 46.956,39.742 46.55,39.75C45.27,39.75 44.64,38.88 44.64,37.13C44.768,35.222 45.229,33.35 46,31.6C45.538,32.642 44.993,33.646 44.37,34.6C43.807,35.483 43.182,36.325 42.5,37.12C41.919,37.825 41.254,38.456 40.52,39C39.987,39.398 39.378,39.681 38.73,39.83C37.862,39.833 37.055,39.375 36.61,38.63C36.037,37.737 35.751,36.69 35.79,35.63C35.811,34.193 36.1,32.772 36.64,31.44C37.196,29.992 37.928,28.619 38.82,27.35C39.632,26.177 40.601,25.121 41.7,24.21C42.522,23.451 43.583,23.001 44.7,22.94C44.988,23.04 45.258,23.185 45.5,23.37C45.804,23.591 46.089,23.839 46.35,24.11C46.606,24.375 46.837,24.662 47.04,24.97C47.198,25.198 47.307,25.457 47.36,25.73C46.298,25.898 45.296,26.336 44.45,27C43.415,27.807 42.497,28.753 41.72,29.81C40.912,30.894 40.24,32.072 39.72,33.32C39.232,34.424 38.967,35.613 38.94,36.82C38.892,37.183 39.099,37.536 39.44,37.67C40.389,37.335 41.215,36.722 41.81,35.91C43.032,34.42 44.122,32.828 45.07,31.15L45.86,29.74C46.16,29.22 46.46,28.67 46.77,28.11L47.67,26.39C48,25.83 48.24,25.27 48.5,24.73Z" style="fill:rgb(97,143,178);fill-rule:nonzero;"/>
    </g>
    <g transform="matrix(1,0,0,1,-79.37,-9.4801)">
        <path d="M146.32,25.47C146.148,25.198 146.038,24.89 146,24.57C145.911,24.179 145.864,23.781 145.86,23.38C146.445,23.478 147.037,23.528 147.63,23.53L149.18,23.53C149.54,22.83 149.92,22.13 150.33,21.44C150.74,20.75 151.15,20.12 151.54,19.55C151.878,19.046 152.245,18.561 152.64,18.1C152.867,17.809 153.133,17.55 153.43,17.33C153.737,17.339 154.042,17.379 154.34,17.45C154.7,17.54 155.07,17.64 155.45,17.77C155.83,17.9 156.17,18.04 156.45,18.18C156.688,18.273 156.902,18.417 157.08,18.6C156.38,19.5 155.77,20.32 155.26,21.08C154.75,21.84 154.2,22.72 153.62,23.7L155.05,23.7C155.542,23.701 156.033,23.667 156.52,23.6C156.646,23.723 156.742,23.874 156.8,24.04C156.871,24.215 156.908,24.401 156.91,24.59C155.557,25.071 154.126,25.298 152.69,25.26C152.1,26.4 151.58,27.53 151.12,28.65C150.66,29.77 150.27,30.86 149.95,31.9C149.647,32.865 149.4,33.847 149.21,34.84C149.041,35.66 148.951,36.493 148.94,37.33C148.94,38.37 149.33,38.95 150.11,39.07C150.796,38.976 151.468,38.798 152.11,38.54C152.724,38.295 153.297,37.958 153.81,37.54C153.925,37.703 154.01,37.886 154.06,38.08C153.848,38.353 153.603,38.598 153.33,38.81C152.974,39.11 152.6,39.387 152.21,39.64C151.837,39.893 151.45,40.123 151.05,40.33C150.783,40.474 150.497,40.579 150.2,40.64C149.593,40.635 148.993,40.516 148.43,40.29C147.857,40.064 147.316,39.765 146.82,39.4C146.359,39.073 145.957,38.671 145.63,38.21C145.343,37.84 145.181,37.388 145.17,36.92C145.187,36.202 145.264,35.486 145.4,34.78C145.55,33.91 145.77,32.98 146.05,31.96C146.33,30.94 146.67,29.88 147.05,28.77C147.43,27.66 147.84,26.56 148.28,25.47L146.32,25.47Z" style="fill:rgb(97,143,178);fill-rule:nonzero;"/>
    </g>
    <g transform="matrix(1,0,0,1,-117.16,-10.0839)">
        <path d="M171.96,28.47L172.87,26.53C173.22,25.83 173.6,25.13 174.02,24.44C174.44,23.75 172.83,27.12 173.22,26.55C173.558,26.046 173.925,25.561 174.32,25.1C174.547,24.809 174.813,24.55 175.11,24.33C175.417,24.339 175.722,24.379 176.02,24.45C176.38,24.54 176.75,24.64 177.13,24.77C177.51,24.9 177.85,25.04 178.13,25.18C178.368,25.273 178.582,25.417 178.76,25.6C178.06,26.5 177.45,27.32 176.94,28.08C176.43,28.84 175.89,29.72 175.3,30.7C175.3,30.7 175.477,30.253 175.332,30.7C175.23,31.013 176.97,27.275 176.38,28.26C175.78,29.4 175.26,30.53 174.8,31.65C174.34,32.77 174.95,30.86 174.63,31.9C174.327,32.865 174.08,33.847 173.89,34.84C173.721,35.66 173.631,36.493 173.62,37.33C173.62,38.37 174.01,38.95 174.79,39.07C175.476,38.976 176.148,38.798 176.79,38.54C177.404,38.295 177.977,37.958 178.49,37.54C178.605,37.703 178.69,37.886 178.74,38.08C178.528,38.353 178.283,38.598 178.01,38.81C177.654,39.11 177.28,39.387 176.89,39.64C176.517,39.893 176.13,40.123 175.73,40.33C175.463,40.474 175.177,40.579 174.88,40.64C174.273,40.635 173.673,40.516 173.11,40.29C172.537,40.064 171.996,39.765 171.5,39.4C171.039,39.073 170.637,38.671 170.31,38.21C170.023,37.84 169.861,37.388 169.85,36.92C169.867,36.202 169.944,35.486 170.08,34.78C170.23,33.91 170.45,32.98 170.73,31.96C171.01,30.94 171.35,29.88 171.73,28.77C172.11,27.66 171.52,29.56 171.96,28.47Z" style="fill:rgb(97,143,178);fill-rule:nonzero;"/>
    </g>
    <g transform="matrix(1,0,0,1,-90.16,-10.0839)">
        <path d="M171.96,28.47L172.87,26.53C173.22,25.83 173.6,25.13 174.02,24.44C174.44,23.75 172.83,27.12 173.22,26.55C173.558,26.046 173.925,25.561 174.32,25.1C174.547,24.809 174.813,24.55 175.11,24.33C175.417,24.339 175.722,24.379 176.02,24.45C176.38,24.54 176.75,24.64 177.13,24.77C177.51,24.9 177.85,25.04 178.13,25.18C178.368,25.273 178.582,25.417 178.76,25.6C178.06,26.5 177.45,27.32 176.94,28.08C176.43,28.84 175.89,29.72 175.3,30.7C175.3,30.7 175.477,30.253 175.332,30.7C175.23,31.013 176.97,27.275 176.38,28.26C175.78,29.4 175.26,30.53 174.8,31.65C174.34,32.77 174.95,30.86 174.63,31.9C174.327,32.865 174.08,33.847 173.89,34.84C173.721,35.66 173.631,36.493 173.62,37.33C173.62,38.37 174.01,38.95 174.79,39.07C175.476,38.976 176.148,38.798 176.79,38.54C177.404,38.295 177.977,37.958 178.49,37.54C178.605,37.703 178.69,37.886 178.74,38.08C178.528,38.353 178.283,38.598 178.01,38.81C177.654,39.11 177.28,39.387 176.89,39.64C176.517,39.893 176.13,40.123 175.73,40.33C175.463,40.474 175.177,40.579 174.88,40.64C174.273,40.635 173.673,40.516 173.11,40.29C172.537,40.064 171.996,39.765 171.5,39.4C171.039,39.073 170.637,38.671 170.31,38.21C170.023,37.84 169.861,37.388 169.85,36.92C169.867,36.202 169.944,35.486 170.08,34.78C170.23,33.91 170.45,32.98 170.73,31.96C171.01,30.94 171.35,29.88 171.73,28.77C172.11,27.66 171.52,29.56 171.96,28.47Z" style="fill:rgb(97,143,178);fill-rule:nonzero;"/>
    </g>
    <g transform="matrix(1,0,0,1,-143.906,-8.06989)">
        <path d="M180.55,38.32C180.67,37.64 180.87,36.74 181.17,35.62C181.47,34.5 181.81,33.3 182.17,32.04C182.53,30.78 183,29.51 183.45,28.23C183.9,26.95 184.33,25.81 184.76,24.8C184.998,24.212 185.269,23.638 185.57,23.08C185.788,22.716 187.274,21.587 187.988,21.336C188.33,21.215 187.907,21.218 188.908,21.208C190.098,21.197 191.033,21.271 191.638,21.595C192.989,22.321 193.32,23.098 193.6,23.26C194.098,23.548 194.19,24.066 194.345,24.284C194.613,25.294 194.778,25.911 194.767,27.06C194.718,27.868 194.734,29.719 194.59,30.21C194.448,30.693 193.953,38.99 193.59,39.34C192.285,38.646 191.288,29.485 190.8,28.09C189.812,28.795 188.876,29.57 188,30.41C187.231,31.148 186.559,31.982 186,32.89C185.409,33.87 184.929,34.913 184.57,36C184.18,37.18 183.81,38.59 183.45,40.22C183.189,40.173 182.934,40.095 182.69,39.99C182.079,39.719 181.51,39.362 181,38.93C180.805,38.764 180.651,38.555 180.55,38.32Z" style="fill:rgb(97,143,178);fill-rule:nonzero;"/>
    </g>
    <g transform="matrix(1,0,0,1,-71.33,0.96)">
        <ellipse cx="132.238" cy="7.5" rx="3.763" ry="3.5" style="fill:rgb(97,143,178);"/>
    </g>
    <g transform="matrix(1,0,0,1,-45.33,0.96)">
        <ellipse cx="132.238" cy="7.5" rx="3.763" ry="3.5" style="fill:rgb(97,143,178);"/>
    </g>
</svg>
